<svg width="1000" height="1000" viewBox="0 0 1000 1000" fill="none" xmlns="http://www.w3.org/2000/svg">
<rect x="15" y="15" width="970" height="970" rx="485" fill="#C62270" stroke="black" stroke-width="30"/>
<path d="M185.5 253.5L170 262.5L202.5 429.5L207 447L211.5 467L216 499L202.5 504.5L190 516V530.5H202.5H216H221L225 554.5L227 578V595.5L229.5 618.5L232 636.5L236.5 659L241.5 682L245.5 699.5L251 730L259.5 773.5L266.5 767L279 753V742.5V730V708.5V692.5V668.5V654V630.5V612.5V595.5V568.5V550V522L288 530.5L297.5 544L305.5 554.5L314 568.5L322 585.5L332 602.5L342.5 623L356 643.5L371 659L387.5 673.5L403.5 685L428.5 699.5L447.5 708.5L471 714.5H498L526.5 708.5L551 692.5L575.5 668.5L593 643.5V659L600 685L618.5 702.5L638.5 712.5L657.5 716H674L692.5 714.5L708.5 708.5L725.5 702.5L739 692.5L753.5 668.5L758.5 651L774.5 663L787 673.5L799 683L812 691.5L824.5 699.5L830 685L816.5 673.5L801.5 659L787 643.5L767.5 618.5V595.5L762 568.5L749.5 535L739 509L721.5 480L706 463L724 449L734.5 435.5L744.5 421L749.5 404L753.5 383V353V332V310L749.5 278.5L744.5 256.5L734.5 231.5L721.5 207.5L708.5 188L692.5 168.5L674 153.5L649.5 136.5L629 127.5L600 117H575.5L548.5 125L524.5 140L507 161.5L500.25 174.75L493.5 188L498 216.5L507 203L515.5 184L531 165L548.5 149L565 140L580.5 136.5L611 144.5L631.5 154.5L649.5 173L669.5 196L685.5 223L692.5 240.5L697 256.5L701 272L708.5 297L713 320.5L716.5 353V375L713 398.5L704.5 421L697 435.5L686.5 445L663.5 429.5L649.5 421L640.5 412V398.5L637.5 383V363L633.5 343L629 312.5L622 286.5L614.5 256.5L611 231.5L600 223H588H571.5H555.5L551 240.5V253.5L555.5 268.5L560.5 286.5L567 307L571.5 326.5L575.5 343L580.5 363V389V412L567 417L551 429.5L542.5 447L538 461.5L542.5 480L551 492L560.5 499L583 509L580.5 522L575.5 541L567 568.5L560.5 595.5L551 618.5L542.5 643.5L532.5 659L520.5 673.5L507 685L493.5 692.5H471L454 689L441.5 682.5L428.5 673.5L411.5 659L394.5 643.5L380.5 630.5L371 618.5L358.5 600L349 585.5L338.5 568.5L328 550L318.5 530.5L309.5 516L301.5 504.5L288 494.5L297.5 487.5L318.5 473.5L335 463L349 451.5L363.5 436.5L380.5 417L394.5 401.5L411.5 378L422.5 360L432 343L447.5 315.5L462 286.5L471 262.5V253.5L457 231.5L447.5 253.5L428.5 290.5L411.5 326.5L394.5 356L380.5 378L358.5 401.5L335 426.5L305.5 451.5L279 467L266.5 253.5L251 245.5H232H207L185.5 253.5Z" fill="black" stroke="black"/>
<path d="M573.5 432H584.5V440.5V451V462V473.5V491.5L573.5 487.5L566.5 485L561 480.5L556.5 473.5L553 462L556.5 451L561 443L566.5 436.5L573.5 432Z" fill="#C62270" stroke="black"/>
<path d="M641.5 452.5V441L654.5 449L663 455.5L666.5 462.5L660.5 470.5L654.5 475L648 479.5L641.5 483.5V475V462.5V452.5Z" fill="#C62270" stroke="black"/>
<path d="M619 583L616 596.5L613 608.5L621 602.5L628.5 596.5L638 591.5L654 586L673 583H695L711.5 586L729 591.5L724.5 568.5L721.5 553.5L716 538.5L707 518L700 503.5L692 488.5L682.5 479L673 483.5L660 491L646 499L638 503.5L634 518L630 535.5L626.5 551L622.5 568.5L619 583Z" fill="#C62270" stroke="black"/>
<path d="M630.5 640L623 649V661.5L627.5 673.5L638 686L652.5 694.5H675.5C682.5 692.167 696.8 687.2 698 686C699.5 684.5 709.5 681 715 673.5C717.544 670.032 722 662 723.5 658.5C724.7 655.7 726.167 647.833 727.5 645V631.5L715 622.5L703 618H684.5H666L652.5 622.5L641 629L630.5 640Z" fill="#C62270" stroke="black"/>
</svg>
