<svg width="500" height="154" viewBox="0 0 500 154" fill="none" xmlns="http://www.w3.org/2000/svg">
<path fill-rule="evenodd" clip-rule="evenodd" d="M233.914 59.078C225.57 64.732 206.581 69.308 190.826 69.46C175.94 69.605 171.926 67.738 175.996 62.563C177.128 61.124 177.808 59.701 177.507 59.4C176.319 58.212 169.642 61.361 168.628 63.588C167.123 66.89 168.221 68.894 172.562 70.765C181.023 74.413 213.611 71.531 231.394 65.561C240.233 62.594 239.712 62.624 242.667 64.897L245.008 66.698L238.598 70.875L232.187 75.052H203.663C177.988 75.052 174.573 74.857 169.472 73.102C166.355 72.03 162.477 70.368 160.856 69.41C158.09 67.777 157.791 67.773 156.047 69.352C155.024 70.278 151.56 71.939 148.35 73.044C142.718 74.981 140.005 75.052 71.0956 75.052C3.61858 75.052 -0.302414 75.149 0.0155863 76.802C0.331586 78.444 4.89958 78.583 74.3386 79.052L148.326 79.552L152.508 81.788C154.808 83.017 156.974 84.482 157.32 85.042C157.7 85.657 159.21 85.108 161.137 83.654C166.647 79.497 170.606 79.063 203.091 79.058L233.857 79.052L239.443 82.761L245.028 86.47L242.721 88.338C240.205 90.375 239.079 90.27 230.798 87.224C224.18 84.79 209.871 82.177 196.826 81.021C186.062 80.068 173.698 81.25 170.155 83.572C165.992 86.3 168.07 92.527 173.326 93.074C177.646 93.524 178.038 93.137 175.954 90.488C172.516 86.117 173.684 85.156 184.377 83.551C190.529 82.628 208.775 84.813 218.585 87.648C226.287 89.873 231.199 92.172 236.996 96.262C238.37 97.232 239.653 96.786 244.231 93.747C247.291 91.715 250.032 90.052 250.321 90.052C250.61 90.052 253.171 91.686 256.012 93.683C260.618 96.92 261.402 97.169 263.252 95.983C269.777 91.799 276.255 88.964 283.485 87.128C299.42 83.081 320.158 82.333 324.58 85.645C326.23 86.881 326.232 87.121 324.623 90.002L322.919 93.052H325.681C328.827 93.052 331.599 91.262 331.875 89.052C332.565 83.539 330.933 82.388 320.595 81.089C307.155 79.4 277.245 83.473 266.201 88.496L261.076 90.827L258.269 88.588L255.462 86.35L260.881 82.701L266.299 79.052L297.813 79.053L329.326 79.054L335.571 82.008L341.815 84.962L347.028 82.257L352.241 79.552L426.033 79.283C498.835 79.018 499.826 78.988 499.826 77.033C499.826 75.077 498.935 75.052 428.983 75.052C360.647 75.052 357.932 74.981 352.302 73.044C349.092 71.939 345.628 70.278 344.605 69.352C342.861 67.773 342.562 67.777 339.796 69.41C338.175 70.368 334.297 72.03 331.18 73.102C326.072 74.86 322.661 75.052 296.615 75.052H267.716L261.713 70.975C256.885 67.697 255.934 66.627 256.858 65.514C258.97 62.968 261.545 62.972 269.165 65.53C286.511 71.352 317.832 74.269 327.221 70.935C333.899 68.564 333.961 62.242 327.328 60.053C325.328 59.393 323.483 59.062 323.228 59.317C322.972 59.572 323.565 61.214 324.545 62.966C326.254 66.022 326.254 66.206 324.539 67.489C317.024 73.114 280.168 67.728 266.391 58.991L261.674 56L255.818 59.557L249.962 63.114L244.442 59.583C241.406 57.641 238.788 56.06 238.624 56.07C238.46 56.08 236.341 57.434 233.914 59.078ZM258.39 76.948C258.128 77.372 256.135 78.952 253.961 80.458L250.009 83.197L245.668 80.052C243.28 78.322 241.402 76.66 241.495 76.357C241.588 76.055 243.575 74.542 245.911 72.996L250.158 70.184L254.512 73.18C256.908 74.828 258.653 76.524 258.39 76.948Z" fill="black"/>
<path fill-rule="evenodd" clip-rule="evenodd" d="M476.165 1.56858C474.622 2.73936 469.68 4.73534 465.18 6.00273C457.956 8.03875 457 8.54449 457 10.3289C457 11.8966 457.517 12.3502 459.302 12.3502C462.435 12.3502 471.079 15.4421 475.166 18.0239L478.515 20.14L482.482 17.5712C484.678 16.148 489.472 14.3131 493.222 13.4583C499.031 12.1352 499.997 11.6468 500 10.0321C500.003 8.47572 498.917 7.822 493.74 6.26474C487 4.23743 482.607 2.36506 480.372 0.566679C479.201 -0.375164 478.507 -0.209775 476.165 1.56858Z" fill="black"/>
<path fill-rule="evenodd" clip-rule="evenodd" d="M19.1647 134.571C17.6222 135.741 12.6796 137.737 8.18006 139.005C0.956366 141.041 0 141.546 0 143.331C0 144.899 0.516979 145.352 2.30163 145.352C5.4353 145.352 14.079 148.444 18.1663 151.026L21.515 153.142L25.4816 150.573C27.6776 149.15 32.4716 147.315 36.2222 146.46C42.0315 145.137 42.9972 144.649 43 143.034C43.0028 141.478 41.9174 140.824 36.7401 139.267C29.9998 137.239 25.6069 135.367 23.3716 133.569C22.2011 132.627 21.5065 132.792 19.1647 134.571Z" fill="black"/>
<path fill-rule="evenodd" clip-rule="evenodd" d="M124.25 8.56426C0.834 8.82026 0 8.83526 0 10.8183C0 12.8043 0.767014 12.8143 154.335 12.8143C239.219 12.8143 350.594 12.5153 401.835 12.1493C491.301 11.5113 495 11.4113 495 9.64926C495 7.62527 528.952 7.72426 124.25 8.56426Z" fill="black"/>
<path fill-rule="evenodd" clip-rule="evenodd" d="M128.25 140.564C4.834 140.82 4 140.835 4 142.818C4 144.804 4.76701 144.814 158.335 144.814C243.219 144.814 354.594 144.515 405.835 144.149C495.301 143.511 499 143.411 499 141.649C499 139.625 532.952 139.724 128.25 140.564Z" fill="black"/>
</svg>
